<?xml version="1.0" encoding="UTF-8" standalone="no"?>
<!DOCTYPE svg PUBLIC "-//W3C//DTD SVG 1.1//EN"
 "http://www.w3.org/Graphics/SVG/1.1/DTD/svg11.dtd">
<!-- Generated by graphviz version 2.40.1 (20161225.0304)
 -->
<!-- Title: %0 Pages: 1 -->
<svg width="733pt" height="620pt"
 viewBox="0.00 0.00 732.54 620.00" xmlns="http://www.w3.org/2000/svg" xmlns:xlink="http://www.w3.org/1999/xlink">
<g id="graph0" class="graph" transform="scale(1 1) rotate(0) translate(4 616)">
<title>%0</title>
<polygon fill="#ffffff" stroke="transparent" points="-4,4 -4,-616 728.5415,-616 728.5415,4 -4,4"/>
<!-- timeInBed -->
<g id="node1" class="node">
<title>timeInBed</title>
<text text-anchor="middle" x="82.9798" y="-87.3" font-family="Tahoma" font-size="9.00" fill="#000000">&lt;ts&gt;timeInBed_</text>
</g>
<!-- AnalysisMenu::onSleepStatisticsThreadFinished() -->
<g id="node20" class="node">
<title>AnalysisMenu::onSleepStatisticsThreadFinished()</title>
<text text-anchor="middle" x="358.9798" y="-15.3" font-family="Tahoma" font-size="9.00" fill="#000000">AnalysisMenu::onSleepStatisticsThreadFinished()</text>
</g>
<!-- timeInBed&#45;&gt;AnalysisMenu::onSleepStatisticsThreadFinished() -->
<g id="edge14" class="edge">
<title>timeInBed&#45;&gt;AnalysisMenu::onSleepStatisticsThreadFinished()</title>
<path fill="none" stroke="#000000" d="M120.277,-75.1975C123.5397,-74.0605 126.8065,-72.977 129.9798,-72 172.1764,-59.0089 219.564,-47.3615 260.237,-38.239"/>
<polygon fill="#000000" stroke="#000000" points="261.1518,-41.6211 270.1541,-36.0346 259.6329,-34.7879 261.1518,-41.6211"/>
</g>
<!-- samplesTime -->
<g id="node2" class="node">
<title>samplesTime</title>
<text text-anchor="middle" x="78.9798" y="-519.3" font-family="Tahoma" font-size="9.00" fill="#000000">&lt;dt&gt;samplesTime_</text>
</g>
<!-- calcStatistics() -->
<g id="node17" class="node">
<title>calcStatistics()</title>
<text text-anchor="middle" x="298.9798" y="-159.3" font-family="Tahoma" font-size="9.00" fill="#000000">calcStatistics()</text>
</g>
<!-- samplesTime&#45;&gt;calcStatistics() -->
<g id="edge1" class="edge">
<title>samplesTime&#45;&gt;calcStatistics()</title>
<path fill="none" stroke="#000000" d="M71.8147,-503.9728C60.6673,-472.9451 42.6499,-408.1458 64.9798,-360 104.1125,-275.6258 198.8753,-214.1727 255.0724,-183.6691"/>
<polygon fill="#000000" stroke="#000000" points="256.9064,-186.6578 264.0831,-178.8639 253.6124,-180.4812 256.9064,-186.6578"/>
</g>
<!-- calcPeriodBedTimeAndGetUpTime() -->
<g id="node18" class="node">
<title>calcPeriodBedTimeAndGetUpTime()</title>
<text text-anchor="middle" x="253.9798" y="-447.3" font-family="Tahoma" font-size="9.00" fill="#000000">calcPeriodBedTimeAndGetUpTime()</text>
</g>
<!-- samplesTime&#45;&gt;calcPeriodBedTimeAndGetUpTime() -->
<g id="edge29" class="edge">
<title>samplesTime&#45;&gt;calcPeriodBedTimeAndGetUpTime()</title>
<path fill="none" stroke="#000000" d="M121.7897,-504.3868C145.567,-494.6042 175.3627,-482.3453 200.6444,-471.9437"/>
<polygon fill="#000000" stroke="#000000" points="202.1746,-475.0989 210.0908,-468.0572 199.5112,-468.6253 202.1746,-475.0989"/>
</g>
<!-- state -->
<g id="node3" class="node">
<title>state</title>
<text text-anchor="middle" x="278.9798" y="-519.3" font-family="Tahoma" font-size="9.00" fill="#000000">&lt;i&gt;state_</text>
</g>
<!-- state&#45;&gt;calcStatistics() -->
<g id="edge2" class="edge">
<title>state&#45;&gt;calcStatistics()</title>
<path fill="none" stroke="#000000" d="M306.2464,-517.9397C353.1857,-510.3651 446.2301,-492.5913 466.9798,-468 508.5066,-418.7852 479.4188,-388.2953 482.9798,-324 485.699,-274.9043 493.6838,-250.8341 458.9798,-216 428.2829,-185.1878 379.4308,-171.9527 343.775,-166.2701"/>
<polygon fill="#000000" stroke="#000000" points="344.0308,-162.7707 333.6319,-164.7984 343.0257,-169.6981 344.0308,-162.7707"/>
</g>
<!-- state&#45;&gt;calcPeriodBedTimeAndGetUpTime() -->
<g id="edge3" class="edge">
<title>state&#45;&gt;calcPeriodBedTimeAndGetUpTime()</title>
<path fill="none" stroke="#000000" d="M272.6713,-503.8314C269.9682,-496.0463 266.7482,-486.7729 263.7489,-478.1347"/>
<polygon fill="#000000" stroke="#000000" points="266.9599,-476.7119 260.3733,-468.4133 260.3472,-479.0081 266.9599,-476.7119"/>
</g>
<!-- bedTime -->
<g id="node4" class="node">
<title>bedTime</title>
<text text-anchor="middle" x="260.9798" y="-375.3" font-family="Tahoma" font-size="9.00" fill="#000000">&lt;dt&gt;bedTime_</text>
</g>
<!-- bedTime&#45;&gt;calcStatistics() -->
<g id="edge4" class="edge">
<title>bedTime&#45;&gt;calcStatistics()</title>
<path fill="none" stroke="#000000" d="M250.0919,-359.7133C244.6869,-349.5709 238.7353,-336.5105 235.9798,-324 232.5383,-308.3745 233.6162,-303.8244 235.9798,-288 240.923,-254.9066 242.7374,-245.7871 257.9798,-216 262.8862,-206.4119 269.523,-196.7793 276.0265,-188.3588"/>
<polygon fill="#000000" stroke="#000000" points="278.8918,-190.3803 282.4166,-180.389 273.4305,-186.0015 278.8918,-190.3803"/>
</g>
<!-- calcPeriodBedTimeAndGetUpTimeFromSleepDiary() -->
<g id="node19" class="node">
<title>calcPeriodBedTimeAndGetUpTimeFromSleepDiary()</title>
<text text-anchor="middle" x="350.9798" y="-303.3" font-family="Tahoma" font-size="9.00" fill="#000000">calcPeriodBedTimeAndGetUpTimeFromSleepDiary()</text>
</g>
<!-- bedTime&#45;&gt;calcPeriodBedTimeAndGetUpTimeFromSleepDiary() -->
<g id="edge8" class="edge">
<title>bedTime&#45;&gt;calcPeriodBedTimeAndGetUpTimeFromSleepDiary()</title>
<path fill="none" stroke="#000000" d="M277.7383,-359.8314C288.0575,-350.8779 301.5535,-339.9558 314.1881,-330.2955"/>
<polygon fill="#000000" stroke="#000000" points="316.4455,-332.9769 322.3245,-324.1628 312.2321,-327.3869 316.4455,-332.9769"/>
</g>
<!-- bedTime&#45;&gt;AnalysisMenu::onSleepStatisticsThreadFinished() -->
<g id="edge12" class="edge">
<title>bedTime&#45;&gt;AnalysisMenu::onSleepStatisticsThreadFinished()</title>
<path fill="none" stroke="#000000" d="M229.5349,-359.9185C149.2496,-311.5667 -50.9521,-175.9062 36.9798,-72 50.9068,-55.543 162.0025,-39.5749 249.8567,-29.3268"/>
<polygon fill="#000000" stroke="#000000" points="250.3708,-32.7908 259.9038,-28.1677 249.5685,-25.8369 250.3708,-32.7908"/>
</g>
<!-- getUpTime -->
<g id="node5" class="node">
<title>getUpTime</title>
<text text-anchor="middle" x="410.9798" y="-231.3" font-family="Tahoma" font-size="9.00" fill="#000000">&lt;dt&gt;getUpTime_</text>
</g>
<!-- getUpTime&#45;&gt;calcStatistics() -->
<g id="edge5" class="edge">
<title>getUpTime&#45;&gt;calcStatistics()</title>
<path fill="none" stroke="#000000" d="M382.7175,-215.8314C368.5247,-206.7074 351.1517,-195.539 335.9163,-185.7449"/>
<polygon fill="#000000" stroke="#000000" points="337.5376,-182.6263 327.2331,-180.1628 333.7523,-188.5146 337.5376,-182.6263"/>
</g>
<!-- getUpTime&#45;&gt;AnalysisMenu::onSleepStatisticsThreadFinished() -->
<g id="edge13" class="edge">
<title>getUpTime&#45;&gt;AnalysisMenu::onSleepStatisticsThreadFinished()</title>
<path fill="none" stroke="#000000" d="M450.3807,-223.0083C526.521,-199.8735 681.5099,-142.4354 623.9798,-72 604.0332,-47.5788 532.0695,-33.9187 468.1627,-26.4503"/>
<polygon fill="#000000" stroke="#000000" points="468.3133,-22.9453 457.9845,-25.3042 467.53,-29.9013 468.3133,-22.9453"/>
</g>
<!-- dateList -->
<g id="node6" class="node">
<title>dateList</title>
<text text-anchor="middle" x="298.9798" y="-231.3" font-family="Tahoma" font-size="9.00" fill="#000000">&lt;d&gt;dateList_</text>
</g>
<!-- dateList&#45;&gt;calcStatistics() -->
<g id="edge6" class="edge">
<title>dateList&#45;&gt;calcStatistics()</title>
<path fill="none" stroke="#000000" d="M293.0275,-215.8314C292.277,-208.131 292.0561,-198.9743 292.3648,-190.4166"/>
<polygon fill="#000000" stroke="#000000" points="295.8591,-190.6161 293.0038,-180.4133 288.8733,-190.1697 295.8591,-190.6161"/>
</g>
<!-- dateList&#45;&gt;calcStatistics() -->
<g id="edge17" class="edge">
<title>dateList&#45;&gt;calcStatistics()</title>
<path fill="none" stroke="#000000" d="M304.9322,-215.8314C305.6827,-208.131 305.9036,-198.9743 305.5949,-190.4166"/>
<polygon fill="#000000" stroke="#000000" points="309.0864,-190.1697 304.9559,-180.4133 302.1006,-190.6161 309.0864,-190.1697"/>
</g>
<!-- nAwakenings -->
<g id="node7" class="node">
<title>nAwakenings</title>
<text text-anchor="middle" x="179.9798" y="-87.3" font-family="Tahoma" font-size="9.00" fill="#000000">&lt;i&gt;nAwakenings_</text>
</g>
<!-- nAwakenings&#45;&gt;AnalysisMenu::onSleepStatisticsThreadFinished() -->
<g id="edge28" class="edge">
<title>nAwakenings&#45;&gt;AnalysisMenu::onSleepStatisticsThreadFinished()</title>
<path fill="none" stroke="#000000" d="M221.496,-73.3008C246.1472,-63.3852 277.6936,-50.6961 304.3489,-39.9745"/>
<polygon fill="#000000" stroke="#000000" points="305.9547,-43.1012 313.9262,-36.1222 303.3424,-36.6068 305.9547,-43.1012"/>
</g>
<!-- awakePeriodLimit -->
<g id="node8" class="node">
<title>awakePeriodLimit</title>
<text text-anchor="middle" x="121.9798" y="-375.3" font-family="Tahoma" font-size="9.00" fill="#000000">(i)awakePeriodLimit_</text>
</g>
<!-- bedTimeSleepDiary -->
<g id="node9" class="node">
<title>bedTimeSleepDiary</title>
<text text-anchor="middle" x="402.9798" y="-447.3" font-family="Tahoma" font-size="9.00" fill="#000000">&lt;dt&gt;bedTimeSleepDiary_</text>
</g>
<!-- bedTimeSleepDiary&#45;&gt;calcPeriodBedTimeAndGetUpTimeFromSleepDiary() -->
<g id="edge39" class="edge">
<title>bedTimeSleepDiary&#45;&gt;calcPeriodBedTimeAndGetUpTimeFromSleepDiary()</title>
<path fill="none" stroke="#000000" d="M396.394,-431.7623C387.4465,-406.9846 371.3723,-362.4714 360.9443,-333.5939"/>
<polygon fill="#000000" stroke="#000000" points="364.2007,-332.3064 357.5122,-324.0896 357.6168,-334.6839 364.2007,-332.3064"/>
</g>
<!-- getUpTimeSleepDiary -->
<g id="node10" class="node">
<title>getUpTimeSleepDiary</title>
<text text-anchor="middle" x="592.9798" y="-447.3" font-family="Tahoma" font-size="9.00" fill="#000000">&lt;dt&gt;getUpTimeSleepDiary_</text>
</g>
<!-- getUpTimeSleepDiary&#45;&gt;calcPeriodBedTimeAndGetUpTimeFromSleepDiary() -->
<g id="edge40" class="edge">
<title>getUpTimeSleepDiary&#45;&gt;calcPeriodBedTimeAndGetUpTimeFromSleepDiary()</title>
<path fill="none" stroke="#000000" d="M562.3304,-431.7623C518.599,-405.7404 438.2861,-357.9508 390.2479,-329.3661"/>
<polygon fill="#000000" stroke="#000000" points="391.7639,-326.1955 381.3805,-324.0896 388.1844,-332.211 391.7639,-326.1955"/>
</g>
<!-- startOfTheDay -->
<g id="node11" class="node">
<title>startOfTheDay</title>
<text text-anchor="middle" x="680.9798" y="-303.3" font-family="Tahoma" font-size="9.00" fill="#000000">&lt;t&gt;startOfTheDay_</text>
</g>
<!-- startOfTheDay&#45;&gt;AnalysisMenu::onSleepStatisticsThreadFinished() -->
<g id="edge42" class="edge">
<title>startOfTheDay&#45;&gt;AnalysisMenu::onSleepStatisticsThreadFinished()</title>
<path fill="none" stroke="#000000" d="M684.354,-287.77C691.3163,-243.9539 702.1134,-131.9302 643.9798,-72 619.625,-46.8925 537.7793,-33.1329 468.009,-25.7986"/>
<polygon fill="#000000" stroke="#000000" points="468.1135,-22.2913 457.8109,-24.7625 467.4059,-29.2554 468.1135,-22.2913"/>
</g>
<!-- waso -->
<g id="node12" class="node">
<title>waso</title>
<text text-anchor="middle" x="266.9798" y="-87.3" font-family="Tahoma" font-size="9.00" fill="#000000">&lt;dt&gt;waso_</text>
</g>
<!-- waso&#45;&gt;AnalysisMenu::onSleepStatisticsThreadFinished() -->
<g id="edge26" class="edge">
<title>waso&#45;&gt;AnalysisMenu::onSleepStatisticsThreadFinished()</title>
<path fill="none" stroke="#000000" d="M290.1953,-71.8314C301.5269,-62.9632 315.3262,-52.1637 327.5825,-42.5718"/>
<polygon fill="#000000" stroke="#000000" points="330.0538,-45.0822 335.7718,-36.1628 325.7396,-39.5697 330.0538,-45.0822"/>
</g>
<!-- totalSleepTime -->
<g id="node13" class="node">
<title>totalSleepTime</title>
<text text-anchor="middle" x="358.9798" y="-87.3" font-family="Tahoma" font-size="9.00" fill="#000000">&lt;ts&gt;totalSleepTime_</text>
</g>
<!-- totalSleepTime&#45;&gt;AnalysisMenu::onSleepStatisticsThreadFinished() -->
<g id="edge15" class="edge">
<title>totalSleepTime&#45;&gt;AnalysisMenu::onSleepStatisticsThreadFinished()</title>
<path fill="none" stroke="#000000" d="M358.9798,-71.8314C358.9798,-64.131 358.9798,-54.9743 358.9798,-46.4166"/>
<polygon fill="#000000" stroke="#000000" points="362.4799,-46.4132 358.9798,-36.4133 355.4799,-46.4133 362.4799,-46.4132"/>
</g>
<!-- v -->
<g id="node14" class="node">
<title>v</title>
<text text-anchor="middle" x="441.9798" y="-591.3" font-family="Tahoma" font-size="9.00" fill="#000000">v</text>
</g>
<!-- onsetLatency -->
<g id="node15" class="node">
<title>onsetLatency</title>
<text text-anchor="middle" x="464.9798" y="-87.3" font-family="Tahoma" font-size="9.00" fill="#000000">&lt;ts&gt;onsetLatency_</text>
</g>
<!-- onsetLatency&#45;&gt;AnalysisMenu::onSleepStatisticsThreadFinished() -->
<g id="edge16" class="edge">
<title>onsetLatency&#45;&gt;AnalysisMenu::onSleepStatisticsThreadFinished()</title>
<path fill="none" stroke="#000000" d="M438.2316,-71.8314C424.9246,-62.7927 408.6638,-51.7476 394.3424,-42.0198"/>
<polygon fill="#000000" stroke="#000000" points="395.9584,-38.8864 385.7196,-36.1628 392.0251,-44.677 395.9584,-38.8864"/>
</g>
<!-- sleepEfficiency -->
<g id="node16" class="node">
<title>sleepEfficiency</title>
<text text-anchor="middle" x="569.9798" y="-87.3" font-family="Tahoma" font-size="9.00" fill="#000000">&lt;f&gt;sleepEfficiency_</text>
</g>
<!-- sleepEfficiency&#45;&gt;AnalysisMenu::onSleepStatisticsThreadFinished() -->
<g id="edge24" class="edge">
<title>sleepEfficiency&#45;&gt;AnalysisMenu::onSleepStatisticsThreadFinished()</title>
<path fill="none" stroke="#000000" d="M525.2322,-74.7307C495.0641,-64.4363 454.8421,-50.7113 421.5174,-39.3398"/>
<polygon fill="#000000" stroke="#000000" points="422.4612,-35.9638 411.8667,-36.0467 420.2005,-42.5887 422.4612,-35.9638"/>
</g>
<!-- calcStatistics()&#45;&gt;timeInBed -->
<g id="edge20" class="edge">
<title>calcStatistics()&#45;&gt;timeInBed</title>
<path fill="none" stroke="#000000" d="M264.4807,-151.6018C230.1926,-141.1207 176.1914,-124.2174 129.9798,-108 129.8819,-107.9656 129.7839,-107.9312 129.6858,-107.8967"/>
<polygon fill="#000000" stroke="#000000" points="130.9592,-104.6353 120.3648,-104.536 128.5849,-111.2204 130.9592,-104.6353"/>
</g>
<!-- calcStatistics()&#45;&gt;nAwakenings -->
<g id="edge27" class="edge">
<title>calcStatistics()&#45;&gt;nAwakenings</title>
<path fill="none" stroke="#000000" d="M268.9511,-143.8314C253.7303,-134.6221 235.0671,-123.3301 218.7716,-113.4706"/>
<polygon fill="#000000" stroke="#000000" points="220.3667,-110.345 209.999,-108.1628 216.743,-116.3341 220.3667,-110.345"/>
</g>
<!-- calcStatistics()&#45;&gt;waso -->
<g id="edge25" class="edge">
<title>calcStatistics()&#45;&gt;waso</title>
<path fill="none" stroke="#000000" d="M290.9049,-143.8314C287.3697,-135.8771 283.1439,-126.369 279.2342,-117.5723"/>
<polygon fill="#000000" stroke="#000000" points="282.4233,-116.1299 275.1635,-108.4133 276.0266,-118.9729 282.4233,-116.1299"/>
</g>
<!-- calcStatistics()&#45;&gt;totalSleepTime -->
<g id="edge21" class="edge">
<title>calcStatistics()&#45;&gt;totalSleepTime</title>
<path fill="none" stroke="#000000" d="M314.1204,-143.8314C321.1015,-135.454 329.5189,-125.3531 337.1674,-116.1749"/>
<polygon fill="#000000" stroke="#000000" points="339.9224,-118.3362 343.6355,-108.4133 334.5448,-113.8548 339.9224,-118.3362"/>
</g>
<!-- calcStatistics()&#45;&gt;onsetLatency -->
<g id="edge22" class="edge">
<title>calcStatistics()&#45;&gt;onsetLatency</title>
<path fill="none" stroke="#000000" d="M333.7789,-146.9064C357.0639,-136.8069 388.0944,-123.3479 414.1318,-112.0546"/>
<polygon fill="#000000" stroke="#000000" points="415.6935,-115.1923 423.475,-108.0021 412.908,-108.7704 415.6935,-115.1923"/>
</g>
<!-- calcStatistics()&#45;&gt;sleepEfficiency -->
<g id="edge23" class="edge">
<title>calcStatistics()&#45;&gt;sleepEfficiency</title>
<path fill="none" stroke="#000000" d="M333.7787,-154.2209C374.8912,-144.8378 445.5213,-128.1156 515.42,-108.0524"/>
<polygon fill="#000000" stroke="#000000" points="516.6425,-111.3422 525.275,-105.1996 514.6961,-104.6183 516.6425,-111.3422"/>
</g>
<!-- calcPeriodBedTimeAndGetUpTime()&#45;&gt;bedTime -->
<g id="edge9" class="edge">
<title>calcPeriodBedTimeAndGetUpTime()&#45;&gt;bedTime</title>
<path fill="none" stroke="#000000" d="M255.7462,-431.8314C256.4949,-424.131 257.3851,-414.9743 258.2171,-406.4166"/>
<polygon fill="#000000" stroke="#000000" points="261.7055,-406.7051 259.1897,-396.4133 254.7383,-406.0276 261.7055,-406.7051"/>
</g>
<!-- calcPeriodBedTimeAndGetUpTime()&#45;&gt;getUpTime -->
<g id="edge11" class="edge">
<title>calcPeriodBedTimeAndGetUpTime()&#45;&gt;getUpTime</title>
<path fill="none" stroke="#000000" d="M316.0832,-431.9759C366.4456,-413.7095 434.1148,-380.007 465.9798,-324 473.8921,-310.0933 472.1705,-302.7538 465.9798,-288 461.3747,-277.0247 453.3301,-267.1573 444.7922,-258.9529"/>
<polygon fill="#000000" stroke="#000000" points="447.0202,-256.2497 437.2361,-252.1849 442.3498,-261.464 447.0202,-256.2497"/>
</g>
<!-- calcPeriodBedTimeAndGetUpTime()&#45;&gt;dateList -->
<g id="edge19" class="edge">
<title>calcPeriodBedTimeAndGetUpTime()&#45;&gt;dateList</title>
<path fill="none" stroke="#000000" d="M237.5517,-431.989C229.6773,-422.1289 221.0819,-409.2441 216.9798,-396 212.2461,-380.7163 214.9215,-375.867 216.9798,-360 221.2375,-327.1796 218.3975,-316.0387 235.9798,-288 242.9848,-276.8291 253.0344,-266.7431 263.0559,-258.3943"/>
<polygon fill="#000000" stroke="#000000" points="265.3597,-261.0346 271.0283,-252.0837 261.0151,-255.546 265.3597,-261.0346"/>
</g>
<!-- calcPeriodBedTimeAndGetUpTime()&#45;&gt;awakePeriodLimit -->
<g id="edge36" class="edge">
<title>calcPeriodBedTimeAndGetUpTime()&#45;&gt;awakePeriodLimit</title>
<path fill="none" stroke="#000000" d="M220.6707,-431.8314C203.5526,-422.4942 182.5092,-411.016 164.2577,-401.0606"/>
<polygon fill="#000000" stroke="#000000" points="165.7333,-397.8788 155.2784,-396.1628 162.3813,-404.024 165.7333,-397.8788"/>
</g>
<!-- calcPeriodBedTimeAndGetUpTimeFromSleepDiary()&#45;&gt;bedTime -->
<g id="edge7" class="edge">
<title>calcPeriodBedTimeAndGetUpTimeFromSleepDiary()&#45;&gt;bedTime</title>
<path fill="none" stroke="#000000" d="M334.2281,-324.1628C323.9103,-333.1154 310.4148,-344.0374 297.7798,-353.6982"/>
<polygon fill="#000000" stroke="#000000" points="295.5219,-351.0172 289.643,-359.8314 299.7354,-356.6071 295.5219,-351.0172"/>
</g>
<!-- calcPeriodBedTimeAndGetUpTimeFromSleepDiary()&#45;&gt;getUpTime -->
<g id="edge10" class="edge">
<title>calcPeriodBedTimeAndGetUpTimeFromSleepDiary()&#45;&gt;getUpTime</title>
<path fill="none" stroke="#000000" d="M366.1204,-287.8314C373.1015,-279.454 381.5189,-269.3531 389.1674,-260.1749"/>
<polygon fill="#000000" stroke="#000000" points="391.9224,-262.3362 395.6355,-252.4133 386.5448,-257.8548 391.9224,-262.3362"/>
</g>
<!-- calcPeriodBedTimeAndGetUpTimeFromSleepDiary()&#45;&gt;dateList -->
<g id="edge18" class="edge">
<title>calcPeriodBedTimeAndGetUpTimeFromSleepDiary()&#45;&gt;dateList</title>
<path fill="none" stroke="#000000" d="M337.8581,-287.8314C331.93,-279.6232 324.8069,-269.7606 318.2865,-260.7323"/>
<polygon fill="#000000" stroke="#000000" points="320.9707,-258.4708 312.2783,-252.4133 315.2959,-262.5693 320.9707,-258.4708"/>
</g>
<!-- AnalysisMenu::processSleepAnalysis() -->
<g id="node21" class="node">
<title>AnalysisMenu::processSleepAnalysis()</title>
<text text-anchor="middle" x="78.9798" y="-591.3" font-family="Tahoma" font-size="9.00" fill="#000000">AnalysisMenu::processSleepAnalysis()</text>
</g>
<!-- AnalysisMenu::processSleepAnalysis()&#45;&gt;samplesTime -->
<g id="edge30" class="edge">
<title>AnalysisMenu::processSleepAnalysis()&#45;&gt;samplesTime</title>
<path fill="none" stroke="#000000" d="M78.9798,-575.8314C78.9798,-568.131 78.9798,-558.9743 78.9798,-550.4166"/>
<polygon fill="#000000" stroke="#000000" points="82.4799,-550.4132 78.9798,-540.4133 75.4799,-550.4133 82.4799,-550.4132"/>
</g>
<!-- AnalysisMenu::processSleepAnalysis()&#45;&gt;state -->
<g id="edge32" class="edge">
<title>AnalysisMenu::processSleepAnalysis()&#45;&gt;state</title>
<path fill="none" stroke="#000000" d="M129.1901,-575.9243C164.2722,-563.2948 210.3305,-546.7138 242.0638,-535.2898"/>
<polygon fill="#000000" stroke="#000000" points="243.608,-538.4538 251.8314,-531.7734 241.237,-531.8676 243.608,-538.4538"/>
</g>
<!-- AnalysisMenu::processSleepAnalysis()&#45;&gt;awakePeriodLimit -->
<g id="edge34" class="edge">
<title>AnalysisMenu::processSleepAnalysis()&#45;&gt;awakePeriodLimit</title>
<path fill="none" stroke="#000000" d="M54.3997,-575.7772C43.8316,-566.4022 32.6256,-554.0021 26.9798,-540 20.9966,-525.1608 21.901,-519.1725 26.9798,-504 40.3198,-464.1485 71.7831,-426.815 94.8605,-403.2908"/>
<polygon fill="#000000" stroke="#000000" points="97.4112,-405.6902 102.0249,-396.1526 92.4705,-400.7314 97.4112,-405.6902"/>
</g>
<!-- AnalysisMenu::processSleepStatistics() -->
<g id="node22" class="node">
<title>AnalysisMenu::processSleepStatistics()</title>
<text text-anchor="middle" x="317.9798" y="-591.3" font-family="Tahoma" font-size="9.00" fill="#000000">AnalysisMenu::processSleepStatistics()</text>
</g>
<!-- AnalysisMenu::processSleepStatistics()&#45;&gt;samplesTime -->
<g id="edge31" class="edge">
<title>AnalysisMenu::processSleepStatistics()&#45;&gt;samplesTime</title>
<path fill="none" stroke="#000000" d="M255.9843,-575.897C220.7524,-565.5362 175.8453,-552.2076 135.9798,-540 134.5535,-539.5632 133.1075,-539.1187 131.6488,-538.6688"/>
<polygon fill="#000000" stroke="#000000" points="132.4937,-535.2664 121.9056,-535.6437 130.4181,-541.9515 132.4937,-535.2664"/>
</g>
<!-- AnalysisMenu::processSleepStatistics()&#45;&gt;state -->
<g id="edge33" class="edge">
<title>AnalysisMenu::processSleepStatistics()&#45;&gt;state</title>
<path fill="none" stroke="#000000" d="M308.1385,-575.8314C303.7841,-567.7925 298.5701,-558.1666 293.7629,-549.2918"/>
<polygon fill="#000000" stroke="#000000" points="296.7941,-547.5392 288.9537,-540.4133 290.6391,-550.8732 296.7941,-547.5392"/>
</g>
<!-- AnalysisMenu::processSleepStatistics()&#45;&gt;awakePeriodLimit -->
<g id="edge35" class="edge">
<title>AnalysisMenu::processSleepStatistics()&#45;&gt;awakePeriodLimit</title>
<path fill="none" stroke="#000000" d="M289.6089,-575.9474C256.8406,-553.8821 203.078,-513.7801 168.9798,-468 154.5207,-448.5872 142.0501,-424.1048 133.5951,-405.5772"/>
<polygon fill="#000000" stroke="#000000" points="136.6991,-403.9434 129.4372,-396.2287 130.3031,-406.7881 136.6991,-403.9434"/>
</g>
<!-- AnalysisMenu::processSleepStatistics()&#45;&gt;bedTimeSleepDiary -->
<g id="edge37" class="edge">
<title>AnalysisMenu::processSleepStatistics()&#45;&gt;bedTimeSleepDiary</title>
<path fill="none" stroke="#000000" d="M328.7452,-575.7623C343.4986,-550.7682 370.1059,-505.6924 387.1363,-476.8409"/>
<polygon fill="#000000" stroke="#000000" points="390.2327,-478.4804 392.302,-468.0896 384.2046,-474.9221 390.2327,-478.4804"/>
</g>
<!-- AnalysisMenu::processSleepStatistics()&#45;&gt;getUpTimeSleepDiary -->
<g id="edge38" class="edge">
<title>AnalysisMenu::processSleepStatistics()&#45;&gt;getUpTimeSleepDiary</title>
<path fill="none" stroke="#000000" d="M352.5303,-575.9081C402.4408,-549.7732 494.6959,-501.4651 549.2756,-472.8851"/>
<polygon fill="#000000" stroke="#000000" points="551.1191,-475.8707 558.3544,-468.1311 547.8718,-469.6694 551.1191,-475.8707"/>
</g>
<!-- AnalysisMenu::processSleepStatistics()&#45;&gt;startOfTheDay -->
<g id="edge41" class="edge">
<title>AnalysisMenu::processSleepStatistics()&#45;&gt;startOfTheDay</title>
<path fill="none" stroke="#000000" d="M394.6843,-575.9134C485.3948,-552.8942 628.3523,-510.9383 661.9798,-468 692.1231,-429.5108 690.2514,-369.2589 685.8364,-334.1012"/>
<polygon fill="#000000" stroke="#000000" points="689.2807,-333.4603 684.4172,-324.0477 682.3494,-334.4388 689.2807,-333.4603"/>
</g>
</g>
</svg>
