<?xml version="1.0" encoding="UTF-8" standalone="no"?>
<!DOCTYPE svg PUBLIC "-//W3C//DTD SVG 1.1//EN"
 "http://www.w3.org/Graphics/SVG/1.1/DTD/svg11.dtd">
<!-- Generated by graphviz version 2.40.1 (20161225.0304)
 -->
<!-- Title: %0 Pages: 1 -->
<svg width="479pt" height="314pt"
 viewBox="0.00 0.00 479.38 314.00" xmlns="http://www.w3.org/2000/svg" xmlns:xlink="http://www.w3.org/1999/xlink">
<g id="graph0" class="graph" transform="scale(1 1) rotate(0) translate(4 310)">
<title>%0</title>
<polygon fill="#ffffff" stroke="transparent" points="-4,4 -4,-310 475.3825,-310 475.3825,4 -4,4"/>
<!-- processStatistics -->
<g id="node1" class="node">
<title>processStatistics</title>
<text text-anchor="middle" x="37.7428" y="-204.3" font-family="Tahoma" font-size="9.00" fill="#000000">processStatistics</text>
</g>
<!-- calcPeriodBedTimeAndGetUpTimeFromSleepDiary -->
<g id="node2" class="node">
<title>calcPeriodBedTimeAndGetUpTimeFromSleepDiary</title>
<text text-anchor="middle" x="214.4562" y="-258.3" font-family="Tahoma" font-size="9.00" fill="#000000">calcPeriodBedTimeAndGetUpTimeFromSleepDiary</text>
</g>
<!-- processStatistics&#45;&gt;calcPeriodBedTimeAndGetUpTimeFromSleepDiary -->
<g id="edge1" class="edge">
<title>processStatistics&#45;&gt;calcPeriodBedTimeAndGetUpTimeFromSleepDiary</title>
<path fill="none" stroke="#000000" d="M75.7814,-221.7063C87.1864,-225.9039 99.7767,-230.3304 111.4855,-234 118.2751,-236.1279 125.3515,-238.2264 132.4748,-240.2563"/>
<polygon fill="#000000" stroke="#000000" points="131.6215,-243.6519 142.1949,-242.9781 133.5091,-236.9112 131.6215,-243.6519"/>
</g>
<!-- calcPeriodBedTimeAndGetUpTime -->
<g id="node3" class="node">
<title>calcPeriodBedTimeAndGetUpTime</title>
<text text-anchor="middle" x="214.4562" y="-204.3" font-family="Tahoma" font-size="9.00" fill="#000000">calcPeriodBedTimeAndGetUpTime</text>
</g>
<!-- processStatistics&#45;&gt;calcPeriodBedTimeAndGetUpTime -->
<g id="edge2" class="edge">
<title>processStatistics&#45;&gt;calcPeriodBedTimeAndGetUpTime</title>
<path fill="none" stroke="#000000" d="M75.6522,-207C91.9744,-207 111.7507,-207 131.1966,-207"/>
<polygon fill="#000000" stroke="#000000" points="131.3155,-210.5001 141.3154,-207 131.3154,-203.5001 131.3155,-210.5001"/>
</g>
<!-- calcStatistics -->
<g id="node4" class="node">
<title>calcStatistics</title>
<text text-anchor="middle" x="214.4562" y="-150.3" font-family="Tahoma" font-size="9.00" fill="#000000">calcStatistics</text>
</g>
<!-- processStatistics&#45;&gt;calcStatistics -->
<g id="edge3" class="edge">
<title>processStatistics&#45;&gt;calcStatistics</title>
<path fill="none" stroke="#000000" d="M75.7814,-192.2937C87.1864,-188.0961 99.7767,-183.6696 111.4855,-180 131.5168,-173.7221 154.0439,-167.6998 172.9086,-162.9422"/>
<polygon fill="#000000" stroke="#000000" points="173.832,-166.3192 182.6892,-160.5054 172.1396,-159.5268 173.832,-166.3192"/>
</g>
<!-- calcPeriodTimeInBed -->
<g id="node5" class="node">
<title>calcPeriodTimeInBed</title>
<text text-anchor="middle" x="412.4047" y="-285.3" font-family="Tahoma" font-size="9.00" fill="#000000">calcPeriodTimeInBed</text>
</g>
<!-- calcStatistics&#45;&gt;calcPeriodTimeInBed -->
<g id="edge4" class="edge">
<title>calcStatistics&#45;&gt;calcPeriodTimeInBed</title>
<path fill="none" stroke="#000000" d="M246.1051,-154.2333C268.3514,-156.6464 297.5721,-163.123 317.4269,-180 347.4436,-205.5147 325.7251,-232.9891 353.4269,-261 354.491,-262.0759 355.6058,-263.1133 356.7632,-264.1132"/>
<polygon fill="#000000" stroke="#000000" points="354.8165,-267.0271 364.9314,-270.1798 358.9903,-261.4075 354.8165,-267.0271"/>
</g>
<!-- calcPeriodTotalSleepTime -->
<g id="node6" class="node">
<title>calcPeriodTotalSleepTime</title>
<text text-anchor="middle" x="412.4047" y="-231.3" font-family="Tahoma" font-size="9.00" fill="#000000">calcPeriodTotalSleepTime</text>
</g>
<!-- calcStatistics&#45;&gt;calcPeriodTotalSleepTime -->
<g id="edge5" class="edge">
<title>calcStatistics&#45;&gt;calcPeriodTotalSleepTime</title>
<path fill="none" stroke="#000000" d="M246.2022,-158.0299C267.1478,-162.1312 294.7943,-169.0681 317.4269,-180 335.4361,-188.6988 336.2359,-196.7789 353.4269,-207 355.877,-208.4568 358.4192,-209.8894 361.0114,-211.2885"/>
<polygon fill="#000000" stroke="#000000" points="359.4637,-214.4283 369.9556,-215.9021 362.6728,-208.2072 359.4637,-214.4283"/>
</g>
<!-- calcPeriodOnsetLatency -->
<g id="node7" class="node">
<title>calcPeriodOnsetLatency</title>
<text text-anchor="middle" x="412.4047" y="-177.3" font-family="Tahoma" font-size="9.00" fill="#000000">calcPeriodOnsetLatency</text>
</g>
<!-- calcStatistics&#45;&gt;calcPeriodOnsetLatency -->
<g id="edge6" class="edge">
<title>calcStatistics&#45;&gt;calcPeriodOnsetLatency</title>
<path fill="none" stroke="#000000" d="M246.2601,-157.338C274.2109,-161.1505 315.6941,-166.8088 350.216,-171.5175"/>
<polygon fill="#000000" stroke="#000000" points="349.8348,-174.9978 360.2161,-172.8815 350.7809,-168.0621 349.8348,-174.9978"/>
</g>
<!-- calcPeriodSleepTime -->
<g id="node8" class="node">
<title>calcPeriodSleepTime</title>
<text text-anchor="middle" x="412.4047" y="-123.3" font-family="Tahoma" font-size="9.00" fill="#000000">calcPeriodSleepTime</text>
</g>
<!-- calcStatistics&#45;&gt;calcPeriodSleepTime -->
<g id="edge7" class="edge">
<title>calcStatistics&#45;&gt;calcPeriodSleepTime</title>
<path fill="none" stroke="#000000" d="M246.2601,-148.662C275.7029,-144.646 320.1615,-138.5819 355.6818,-133.7369"/>
<polygon fill="#000000" stroke="#000000" points="356.4812,-137.1604 365.9164,-132.341 355.5351,-130.2246 356.4812,-137.1604"/>
</g>
<!-- calcPeriodSleepEfficiency -->
<g id="node9" class="node">
<title>calcPeriodSleepEfficiency</title>
<text text-anchor="middle" x="412.4047" y="-69.3" font-family="Tahoma" font-size="9.00" fill="#000000">calcPeriodSleepEfficiency</text>
</g>
<!-- calcStatistics&#45;&gt;calcPeriodSleepEfficiency -->
<g id="edge8" class="edge">
<title>calcStatistics&#45;&gt;calcPeriodSleepEfficiency</title>
<path fill="none" stroke="#000000" d="M246.2601,-139.9859C276.5576,-127.5883 322.7552,-108.6843 358.7519,-93.9546"/>
<polygon fill="#000000" stroke="#000000" points="360.2095,-97.1399 368.1391,-90.1134 357.5584,-90.6613 360.2095,-97.1399"/>
</g>
<!-- calcPeriodNAwakAndWaso -->
<g id="node10" class="node">
<title>calcPeriodNAwakAndWaso</title>
<text text-anchor="middle" x="412.4047" y="-15.3" font-family="Tahoma" font-size="9.00" fill="#000000">calcPeriodNAwakAndWaso</text>
</g>
<!-- calcStatistics&#45;&gt;calcPeriodNAwakAndWaso -->
<g id="edge9" class="edge">
<title>calcStatistics&#45;&gt;calcPeriodNAwakAndWaso</title>
<path fill="none" stroke="#000000" d="M234.5533,-134.9452C260.6497,-112.0911 308.2229,-72.4038 353.4269,-45 355.8644,-43.5223 358.3966,-42.0728 360.9807,-40.6605"/>
<polygon fill="#000000" stroke="#000000" points="362.6516,-43.7366 369.9055,-36.0145 359.4192,-37.5276 362.6516,-43.7366"/>
</g>
</g>
</svg>
