<?xml version="1.0" encoding="UTF-8" standalone="no"?>
<!DOCTYPE svg PUBLIC "-//W3C//DTD SVG 1.1//EN"
 "http://www.w3.org/Graphics/SVG/1.1/DTD/svg11.dtd">
<!-- Generated by graphviz version 2.44.1 (20200629.0800)
 -->
<!-- Title: G Pages: 1 -->
<svg width="1577pt" height="974pt"
 viewBox="0.00 0.00 1577.09 974.29" xmlns="http://www.w3.org/2000/svg" xmlns:xlink="http://www.w3.org/1999/xlink">
<g id="graph0" class="graph" transform="scale(1 1) rotate(0) translate(4 970.29)">
<title>G</title>
<polygon fill="white" stroke="transparent" points="-4,4 -4,-970.29 1573.09,-970.29 1573.09,4 -4,4"/>
<!-- all -->
<g id="node1" class="node">
<title>all</title>
<ellipse fill="none" stroke="black" cx="27" cy="-339" rx="27" ry="18"/>
<text text-anchor="middle" x="27" y="-335.3" font-family="Times New Roman,serif" font-size="14.00">all</text>
</g>
<!-- computer science -->
<g id="node2" class="node">
<title>computer science</title>
<ellipse fill="none" stroke="black" cx="776.45" cy="-440" rx="74.99" ry="18"/>
<text text-anchor="middle" x="776.45" y="-436.3" font-family="Times New Roman,serif" font-size="14.00">computer science</text>
</g>
<!-- all&#45;&gt;computer science -->
<g id="edge1" class="edge">
<title>all&#45;&gt;computer science</title>
<path fill="none" stroke="black" d="M53.63,-342.03C138.24,-352.08 416.35,-385.63 645.56,-419 664.81,-421.8 685.62,-425.06 704.83,-428.17"/>
<polygon fill="black" stroke="black" points="704.28,-431.63 714.71,-429.78 705.41,-424.72 704.28,-431.63"/>
</g>
<!-- programming -->
<g id="node9" class="node">
<title>programming</title>
<ellipse fill="none" stroke="black" cx="175.14" cy="-607" rx="59.29" ry="18"/>
<text text-anchor="middle" x="175.14" y="-603.3" font-family="Times New Roman,serif" font-size="14.00">programming</text>
</g>
<!-- all&#45;&gt;programming -->
<g id="edge8" class="edge">
<title>all&#45;&gt;programming</title>
<path fill="none" stroke="black" d="M37.14,-355.76C61.77,-400.94 129.69,-525.48 159.63,-580.39"/>
<polygon fill="black" stroke="black" points="156.57,-582.09 164.43,-589.2 162.72,-578.74 156.57,-582.09"/>
</g>
<!-- mathematics -->
<g id="node35" class="node">
<title>mathematics</title>
<ellipse fill="none" stroke="black" cx="369.73" cy="-297" rx="55.79" ry="18"/>
<text text-anchor="middle" x="369.73" y="-293.3" font-family="Times New Roman,serif" font-size="14.00">mathematics</text>
</g>
<!-- all&#45;&gt;mathematics -->
<g id="edge44" class="edge">
<title>all&#45;&gt;mathematics</title>
<path fill="none" stroke="black" d="M53.61,-335.84C106.97,-329.27 231.36,-313.93 306.92,-304.62"/>
<polygon fill="black" stroke="black" points="307.75,-308.04 317.25,-303.35 306.89,-301.1 307.75,-308.04"/>
</g>
<!-- electrical engineering -->
<g id="node48" class="node">
<title>electrical engineering</title>
<ellipse fill="none" stroke="black" cx="175.14" cy="-266" rx="85.29" ry="18"/>
<text text-anchor="middle" x="175.14" y="-262.3" font-family="Times New Roman,serif" font-size="14.00">electrical engineering</text>
</g>
<!-- all&#45;&gt;electrical engineering -->
<g id="edge63" class="edge">
<title>all&#45;&gt;electrical engineering</title>
<path fill="none" stroke="black" d="M48.54,-327.76C60.56,-321.27 76.06,-313.02 90,-306 102.79,-299.56 116.79,-292.79 129.64,-286.69"/>
<polygon fill="black" stroke="black" points="131.22,-289.82 138.76,-282.38 128.23,-283.49 131.22,-289.82"/>
</g>
<!-- lambda calculus -->
<g id="node3" class="node">
<title>lambda calculus</title>
<ellipse fill="none" stroke="black" cx="1372.56" cy="-448" rx="68.79" ry="18"/>
<text text-anchor="middle" x="1372.56" y="-444.3" font-family="Times New Roman,serif" font-size="14.00">lambda calculus</text>
</g>
<!-- computer science&#45;&gt;lambda calculus -->
<g id="edge2" class="edge">
<title>computer science&#45;&gt;lambda calculus</title>
<path fill="none" stroke="black" d="M828.28,-426.92C852.1,-421.43 880.99,-415.71 907.34,-413 1049.4,-398.39 1216.5,-420.62 1306.4,-435.8"/>
<polygon fill="black" stroke="black" points="1306,-439.28 1316.45,-437.52 1307.18,-432.38 1306,-439.28"/>
</g>
<!-- floating point -->
<g id="node4" class="node">
<title>floating point</title>
<ellipse fill="none" stroke="black" cx="988.58" cy="-440" rx="58.49" ry="18"/>
<text text-anchor="middle" x="988.58" y="-436.3" font-family="Times New Roman,serif" font-size="14.00">floating point</text>
</g>
<!-- computer science&#45;&gt;floating point -->
<g id="edge3" class="edge">
<title>computer science&#45;&gt;floating point</title>
<path fill="none" stroke="black" d="M851.24,-440C873.49,-440 897.81,-440 919.66,-440"/>
<polygon fill="black" stroke="black" points="919.84,-443.5 929.84,-440 919.84,-436.5 919.84,-443.5"/>
</g>
<!-- l and rvalues -->
<g id="node6" class="node">
<title>l and rvalues</title>
<ellipse fill="none" stroke="black" cx="1186.42" cy="-486" rx="55.79" ry="18"/>
<text text-anchor="middle" x="1186.42" y="-482.3" font-family="Times New Roman,serif" font-size="14.00">l and rvalues</text>
</g>
<!-- computer science&#45;&gt;l and rvalues -->
<g id="edge5" class="edge">
<title>computer science&#45;&gt;l and rvalues</title>
<path fill="none" stroke="black" d="M829.94,-452.61C853.48,-457.83 881.67,-463.47 907.34,-467 979.89,-476.97 1063.84,-481.79 1120.36,-484.07"/>
<polygon fill="black" stroke="black" points="1120.45,-487.58 1130.58,-484.47 1120.72,-480.58 1120.45,-487.58"/>
</g>
<!-- complexity -->
<g id="node8" class="node">
<title>complexity</title>
<ellipse fill="none" stroke="black" cx="1372.56" cy="-578" rx="50.89" ry="18"/>
<text text-anchor="middle" x="1372.56" y="-574.3" font-family="Times New Roman,serif" font-size="14.00">complexity</text>
</g>
<!-- computer science&#45;&gt;complexity -->
<g id="edge7" class="edge">
<title>computer science&#45;&gt;complexity</title>
<path fill="none" stroke="black" d="M790.15,-457.85C810.98,-485.45 855.32,-537.54 907.34,-559 978.85,-588.5 1203.81,-584.46 1312.13,-580.58"/>
<polygon fill="black" stroke="black" points="1312.37,-584.07 1322.23,-580.21 1312.11,-577.08 1312.37,-584.07"/>
</g>
<!-- javascript -->
<g id="node7" class="node">
<title>javascript</title>
<ellipse fill="none" stroke="black" cx="1523.6" cy="-679" rx="45.49" ry="18"/>
<text text-anchor="middle" x="1523.6" y="-675.3" font-family="Times New Roman,serif" font-size="14.00">javascript</text>
</g>
<!-- lambda calculus&#45;&gt;javascript -->
<g id="edge6" class="edge">
<title>lambda calculus&#45;&gt;javascript</title>
<path fill="none" stroke="black" d="M1385.58,-465.77C1399.38,-486.23 1422.61,-520.88 1442.1,-551 1464.81,-586.09 1490.41,-627.05 1506.52,-653"/>
<polygon fill="black" stroke="black" points="1503.56,-654.86 1511.8,-661.52 1509.5,-651.18 1503.56,-654.86"/>
</g>
<!-- number systems -->
<g id="node5" class="node">
<title>number systems</title>
<ellipse fill="none" stroke="black" cx="1186.42" cy="-356" rx="69.59" ry="18"/>
<text text-anchor="middle" x="1186.42" y="-352.3" font-family="Times New Roman,serif" font-size="14.00">number systems</text>
</g>
<!-- floating point&#45;&gt;number systems -->
<g id="edge4" class="edge">
<title>floating point&#45;&gt;number systems</title>
<path fill="none" stroke="black" d="M1023.7,-425.37C1055.95,-411.53 1104.56,-390.68 1140.07,-375.45"/>
<polygon fill="black" stroke="black" points="1141.9,-378.47 1149.71,-371.32 1139.14,-372.04 1141.9,-378.47"/>
</g>
<!-- wolfram -->
<g id="node44" class="node">
<title>wolfram</title>
<ellipse fill="none" stroke="black" cx="1372.56" cy="-356" rx="40.09" ry="18"/>
<text text-anchor="middle" x="1372.56" y="-352.3" font-family="Times New Roman,serif" font-size="14.00">wolfram</text>
</g>
<!-- number systems&#45;&gt;wolfram -->
<g id="edge57" class="edge">
<title>number systems&#45;&gt;wolfram</title>
<path fill="none" stroke="black" d="M1255.98,-356C1277.84,-356 1301.59,-356 1321.84,-356"/>
<polygon fill="black" stroke="black" points="1322.09,-359.5 1332.09,-356 1322.09,-352.5 1322.09,-359.5"/>
</g>
<!-- l and rvalues&#45;&gt;lambda calculus -->
<g id="edge35" class="edge">
<title>l and rvalues&#45;&gt;lambda calculus</title>
<path fill="none" stroke="black" d="M1233.88,-476.41C1256.36,-471.77 1283.68,-466.13 1308.04,-461.11"/>
<polygon fill="black" stroke="black" points="1308.84,-464.52 1317.92,-459.07 1307.42,-457.66 1308.84,-464.52"/>
</g>
<!-- programming&#45;&gt;javascript -->
<g id="edge36" class="edge">
<title>programming&#45;&gt;javascript</title>
<path fill="none" stroke="black" d="M179.91,-625.16C190.25,-670.54 223.28,-789.86 296.28,-855 389.44,-938.13 436.51,-948 561.36,-948 561.36,-948 561.36,-948 1187.42,-948 1300.92,-948 1352.91,-999.21 1442.1,-929 1511.15,-874.65 1521.85,-760.44 1522.93,-707.31"/>
<polygon fill="black" stroke="black" points="1526.43,-707.27 1523.03,-697.24 1519.43,-707.2 1526.43,-707.27"/>
</g>
<!-- generics -->
<g id="node10" class="node">
<title>generics</title>
<ellipse fill="none" stroke="black" cx="369.73" cy="-538" rx="40.09" ry="18"/>
<text text-anchor="middle" x="369.73" y="-534.3" font-family="Times New Roman,serif" font-size="14.00">generics</text>
</g>
<!-- programming&#45;&gt;generics -->
<g id="edge9" class="edge">
<title>programming&#45;&gt;generics</title>
<path fill="none" stroke="black" d="M214.19,-593.37C247.12,-581.57 294.59,-564.56 328.22,-552.51"/>
<polygon fill="black" stroke="black" points="329.51,-555.77 337.74,-549.1 327.15,-549.18 329.51,-555.77"/>
</g>
<!-- sum types -->
<g id="node12" class="node">
<title>sum types</title>
<ellipse fill="none" stroke="black" cx="1186.42" cy="-879" rx="48.19" ry="18"/>
<text text-anchor="middle" x="1186.42" y="-875.3" font-family="Times New Roman,serif" font-size="14.00">sum types</text>
</g>
<!-- programming&#45;&gt;sum types -->
<g id="edge11" class="edge">
<title>programming&#45;&gt;sum types</title>
<path fill="none" stroke="black" d="M182.78,-625.1C197.46,-662.74 236.24,-750.06 296.28,-799 393.53,-878.26 435.91,-896 561.36,-896 561.36,-896 561.36,-896 777.45,-896 902.96,-896 1050,-887.87 1128.76,-882.85"/>
<polygon fill="black" stroke="black" points="1129.19,-886.33 1138.95,-882.2 1128.74,-879.35 1129.19,-886.33"/>
</g>
<!-- object orientation -->
<g id="node15" class="node">
<title>object orientation</title>
<ellipse fill="none" stroke="black" cx="369.73" cy="-630" rx="73.39" ry="18"/>
<text text-anchor="middle" x="369.73" y="-626.3" font-family="Times New Roman,serif" font-size="14.00">object orientation</text>
</g>
<!-- programming&#45;&gt;object orientation -->
<g id="edge14" class="edge">
<title>programming&#45;&gt;object orientation</title>
<path fill="none" stroke="black" d="M230.56,-613.5C249.96,-615.82 272.18,-618.47 293.05,-620.96"/>
<polygon fill="black" stroke="black" points="292.82,-624.46 303.17,-622.17 293.65,-617.51 292.82,-624.46"/>
</g>
<!-- float hashing -->
<g id="node18" class="node">
<title>float hashing</title>
<ellipse fill="none" stroke="black" cx="369.73" cy="-465" rx="56.59" ry="18"/>
<text text-anchor="middle" x="369.73" y="-461.3" font-family="Times New Roman,serif" font-size="14.00">float hashing</text>
</g>
<!-- programming&#45;&gt;float hashing -->
<g id="edge18" class="edge">
<title>programming&#45;&gt;float hashing</title>
<path fill="none" stroke="black" d="M196.03,-590.01C219.45,-570.26 259.78,-537.06 296.28,-511 308.07,-502.58 321.36,-493.93 333.3,-486.42"/>
<polygon fill="black" stroke="black" points="335.48,-489.19 342.12,-480.94 331.78,-483.25 335.48,-489.19"/>
</g>
<!-- performance -->
<g id="node20" class="node">
<title>performance</title>
<ellipse fill="none" stroke="black" cx="776.45" cy="-576" rx="56.59" ry="18"/>
<text text-anchor="middle" x="776.45" y="-572.3" font-family="Times New Roman,serif" font-size="14.00">performance</text>
</g>
<!-- programming&#45;&gt;performance -->
<g id="edge20" class="edge">
<title>programming&#45;&gt;performance</title>
<path fill="none" stroke="black" d="M233.61,-604.03C345.51,-598.24 592.02,-585.49 710.01,-579.38"/>
<polygon fill="black" stroke="black" points="710.53,-582.86 720.34,-578.85 710.17,-575.87 710.53,-582.86"/>
</g>
<!-- static programming -->
<g id="node22" class="node">
<title>static programming</title>
<ellipse fill="none" stroke="black" cx="1186.42" cy="-740" rx="80.69" ry="18"/>
<text text-anchor="middle" x="1186.42" y="-736.3" font-family="Times New Roman,serif" font-size="14.00">static programming</text>
</g>
<!-- programming&#45;&gt;static programming -->
<g id="edge24" class="edge">
<title>programming&#45;&gt;static programming</title>
<path fill="none" stroke="black" d="M189.73,-624.65C235.4,-681.78 390.14,-858 561.36,-858 561.36,-858 561.36,-858 777.45,-858 909.43,-858 945.73,-850.94 1069.83,-806 1099.37,-795.3 1130.13,-777.35 1152.49,-762.87"/>
<polygon fill="black" stroke="black" points="1154.5,-765.74 1160.93,-757.31 1150.65,-759.89 1154.5,-765.74"/>
</g>
<!-- equality -->
<g id="node26" class="node">
<title>equality</title>
<ellipse fill="none" stroke="black" cx="369.73" cy="-708" rx="38.19" ry="18"/>
<text text-anchor="middle" x="369.73" y="-704.3" font-family="Times New Roman,serif" font-size="14.00">equality</text>
</g>
<!-- programming&#45;&gt;equality -->
<g id="edge29" class="edge">
<title>programming&#45;&gt;equality</title>
<path fill="none" stroke="black" d="M205.81,-622.56C240.39,-640.69 297.45,-670.62 334.04,-689.81"/>
<polygon fill="black" stroke="black" points="332.85,-693.14 343.33,-694.68 336.1,-686.94 332.85,-693.14"/>
</g>
<!-- functional -->
<g id="node30" class="node">
<title>functional</title>
<ellipse fill="none" stroke="black" cx="776.45" cy="-310" rx="46.29" ry="18"/>
<text text-anchor="middle" x="776.45" y="-306.3" font-family="Times New Roman,serif" font-size="14.00">functional</text>
</g>
<!-- programming&#45;&gt;functional -->
<g id="edge37" class="edge">
<title>programming&#45;&gt;functional</title>
<path fill="none" stroke="black" d="M183.78,-589.07C199.5,-554.35 238.92,-477.83 296.28,-438 429.22,-345.7 625.24,-319.93 720.06,-312.76"/>
<polygon fill="black" stroke="black" points="720.56,-316.23 730.29,-312.03 720.06,-309.25 720.56,-316.23"/>
</g>
<!-- interface covariance -->
<g id="node11" class="node">
<title>interface covariance</title>
<ellipse fill="none" stroke="black" cx="562.36" cy="-538" rx="83.39" ry="18"/>
<text text-anchor="middle" x="562.36" y="-534.3" font-family="Times New Roman,serif" font-size="14.00">interface covariance</text>
</g>
<!-- generics&#45;&gt;interface covariance -->
<g id="edge10" class="edge">
<title>generics&#45;&gt;interface covariance</title>
<path fill="none" stroke="black" d="M410.23,-538C427.38,-538 448.25,-538 468.95,-538"/>
<polygon fill="black" stroke="black" points="469.07,-541.5 479.07,-538 469.07,-534.5 469.07,-541.5"/>
</g>
<!-- interface -->
<g id="node13" class="node">
<title>interface</title>
<ellipse fill="none" stroke="black" cx="1372.56" cy="-848" rx="41.69" ry="18"/>
<text text-anchor="middle" x="1372.56" y="-844.3" font-family="Times New Roman,serif" font-size="14.00">interface</text>
</g>
<!-- sum types&#45;&gt;interface -->
<g id="edge12" class="edge">
<title>sum types&#45;&gt;interface</title>
<path fill="none" stroke="black" d="M1230.59,-871.73C1258.42,-867.05 1294.66,-860.95 1323.42,-856.1"/>
<polygon fill="black" stroke="black" points="1324.37,-859.49 1333.65,-854.38 1323.21,-852.59 1324.37,-859.49"/>
</g>
<!-- sealed trait -->
<g id="node14" class="node">
<title>sealed trait</title>
<ellipse fill="none" stroke="black" cx="1372.56" cy="-902" rx="49.29" ry="18"/>
<text text-anchor="middle" x="1372.56" y="-898.3" font-family="Times New Roman,serif" font-size="14.00">sealed trait</text>
</g>
<!-- sum types&#45;&gt;sealed trait -->
<g id="edge13" class="edge">
<title>sum types&#45;&gt;sealed trait</title>
<path fill="none" stroke="black" d="M1232.46,-884.63C1257.58,-887.76 1289.07,-891.7 1315.74,-895.03"/>
<polygon fill="black" stroke="black" points="1315.34,-898.51 1325.7,-896.27 1316.21,-891.56 1315.34,-898.51"/>
</g>
<!-- set theory -->
<g id="node16" class="node">
<title>set theory</title>
<ellipse fill="none" stroke="black" cx="776.45" cy="-630" rx="46.29" ry="18"/>
<text text-anchor="middle" x="776.45" y="-626.3" font-family="Times New Roman,serif" font-size="14.00">set theory</text>
</g>
<!-- object orientation&#45;&gt;set theory -->
<g id="edge15" class="edge">
<title>object orientation&#45;&gt;set theory</title>
<path fill="none" stroke="black" d="M443.55,-630C522.94,-630 648.22,-630 720,-630"/>
<polygon fill="black" stroke="black" points="720.2,-633.5 730.2,-630 720.2,-626.5 720.2,-633.5"/>
</g>
<!-- urelements -->
<g id="node17" class="node">
<title>urelements</title>
<ellipse fill="none" stroke="black" cx="988.58" cy="-779" rx="49.29" ry="18"/>
<text text-anchor="middle" x="988.58" y="-775.3" font-family="Times New Roman,serif" font-size="14.00">urelements</text>
</g>
<!-- set theory&#45;&gt;urelements -->
<g id="edge16" class="edge">
<title>set theory&#45;&gt;urelements</title>
<path fill="none" stroke="black" d="M799.54,-645.66C837.2,-672.37 913.9,-726.75 956.8,-757.17"/>
<polygon fill="black" stroke="black" points="954.97,-760.17 965.16,-763.1 959.02,-754.46 954.97,-760.17"/>
</g>
<!-- irregular collections -->
<g id="node45" class="node">
<title>irregular collections</title>
<ellipse fill="none" stroke="black" cx="988.58" cy="-532" rx="81.49" ry="18"/>
<text text-anchor="middle" x="988.58" y="-528.3" font-family="Times New Roman,serif" font-size="14.00">irregular collections</text>
</g>
<!-- set theory&#45;&gt;irregular collections -->
<g id="edge59" class="edge">
<title>set theory&#45;&gt;irregular collections</title>
<path fill="none" stroke="black" d="M817.1,-621.12C834.16,-616.66 854.11,-610.58 871.34,-603 901.15,-589.89 932.53,-570.34 955.16,-555.07"/>
<polygon fill="black" stroke="black" points="957.41,-557.78 963.69,-549.24 953.46,-552 957.41,-557.78"/>
</g>
<!-- urelements&#45;&gt;sum types -->
<g id="edge17" class="edge">
<title>urelements&#45;&gt;sum types</title>
<path fill="none" stroke="black" d="M1018.06,-793.54C1052.39,-811.07 1110.17,-840.58 1148.05,-859.92"/>
<polygon fill="black" stroke="black" points="1146.73,-863.17 1157.23,-864.6 1149.91,-856.94 1146.73,-863.17"/>
</g>
<!-- commutativity -->
<g id="node19" class="node">
<title>commutativity</title>
<ellipse fill="none" stroke="black" cx="562.36" cy="-446" rx="61.99" ry="18"/>
<text text-anchor="middle" x="562.36" y="-442.3" font-family="Times New Roman,serif" font-size="14.00">commutativity</text>
</g>
<!-- float hashing&#45;&gt;commutativity -->
<g id="edge19" class="edge">
<title>float hashing&#45;&gt;commutativity</title>
<path fill="none" stroke="black" d="M423.83,-459.71C445.42,-457.56 470.64,-455.04 493.54,-452.76"/>
<polygon fill="black" stroke="black" points="493.93,-456.24 503.53,-451.76 493.24,-449.27 493.93,-456.24"/>
</g>
<!-- commutativity&#45;&gt;performance -->
<g id="edge21" class="edge">
<title>commutativity&#45;&gt;performance</title>
<path fill="none" stroke="black" d="M604.09,-459.33C617.64,-464.42 632.59,-470.76 645.56,-478 683.85,-499.36 723.45,-530.84 748.7,-552.32"/>
<polygon fill="black" stroke="black" points="746.51,-555.05 756.38,-558.92 751.08,-549.74 746.51,-555.05"/>
</g>
<!-- performance&#45;&gt;floating point -->
<g id="edge23" class="edge">
<title>performance&#45;&gt;floating point</title>
<path fill="none" stroke="black" d="M802.38,-559.86C840.03,-535.49 911.5,-489.24 953.8,-461.87"/>
<polygon fill="black" stroke="black" points="955.86,-464.7 962.36,-456.33 952.06,-458.82 955.86,-464.7"/>
</g>
<!-- c++ -->
<g id="node21" class="node">
<title>c++</title>
<ellipse fill="none" stroke="black" cx="988.58" cy="-678" rx="27" ry="18"/>
<text text-anchor="middle" x="988.58" y="-674.3" font-family="Times New Roman,serif" font-size="14.00">c++</text>
</g>
<!-- performance&#45;&gt;c++ -->
<g id="edge22" class="edge">
<title>performance&#45;&gt;c++</title>
<path fill="none" stroke="black" d="M827.38,-584.01C842.41,-588.03 858.35,-594.05 871.34,-603 893.29,-618.14 885.73,-635.38 907.34,-651 920.6,-660.59 937.5,-666.94 952.37,-671.06"/>
<polygon fill="black" stroke="black" points="951.71,-674.51 962.27,-673.57 953.43,-667.72 951.71,-674.51"/>
</g>
<!-- servers -->
<g id="node31" class="node">
<title>servers</title>
<ellipse fill="none" stroke="black" cx="988.58" cy="-624" rx="36.29" ry="18"/>
<text text-anchor="middle" x="988.58" y="-620.3" font-family="Times New Roman,serif" font-size="14.00">servers</text>
</g>
<!-- performance&#45;&gt;servers -->
<g id="edge39" class="edge">
<title>performance&#45;&gt;servers</title>
<path fill="none" stroke="black" d="M822.79,-586.36C859.13,-594.66 909.76,-606.22 945.28,-614.34"/>
<polygon fill="black" stroke="black" points="944.8,-617.82 955.33,-616.63 946.36,-610.99 944.8,-617.82"/>
</g>
<!-- c++&#45;&gt;l and rvalues -->
<g id="edge34" class="edge">
<title>c++&#45;&gt;l and rvalues</title>
<path fill="none" stroke="black" d="M1015.12,-673.86C1031.98,-670.12 1053.84,-663.25 1069.83,-651 1092.72,-633.46 1089.42,-620.72 1105.83,-597 1126.19,-567.56 1150.21,-534.24 1166.5,-511.86"/>
<polygon fill="black" stroke="black" points="1169.49,-513.7 1172.55,-503.55 1163.83,-509.57 1169.49,-513.7"/>
</g>
<!-- c++&#45;&gt;static programming -->
<g id="edge25" class="edge">
<title>c++&#45;&gt;static programming</title>
<path fill="none" stroke="black" d="M1013.21,-685.48C1041.81,-694.53 1090.93,-710.09 1129.41,-722.27"/>
<polygon fill="black" stroke="black" points="1128.36,-725.61 1138.95,-725.29 1130.47,-718.93 1128.36,-725.61"/>
</g>
<!-- d -->
<g id="node23" class="node">
<title>d</title>
<ellipse fill="none" stroke="black" cx="1372.56" cy="-686" rx="27" ry="18"/>
<text text-anchor="middle" x="1372.56" y="-682.3" font-family="Times New Roman,serif" font-size="14.00">d</text>
</g>
<!-- static programming&#45;&gt;d -->
<g id="edge26" class="edge">
<title>static programming&#45;&gt;d</title>
<path fill="none" stroke="black" d="M1236.28,-725.67C1268.16,-716.32 1308.99,-704.35 1337.41,-696.01"/>
<polygon fill="black" stroke="black" points="1338.67,-699.29 1347.28,-693.12 1336.7,-692.57 1338.67,-699.29"/>
</g>
<!-- constexpr -->
<g id="node24" class="node">
<title>constexpr</title>
<ellipse fill="none" stroke="black" cx="1372.56" cy="-794" rx="46.59" ry="18"/>
<text text-anchor="middle" x="1372.56" y="-790.3" font-family="Times New Roman,serif" font-size="14.00">constexpr</text>
</g>
<!-- static programming&#45;&gt;constexpr -->
<g id="edge27" class="edge">
<title>static programming&#45;&gt;constexpr</title>
<path fill="none" stroke="black" d="M1236.28,-754.33C1263.8,-762.4 1297.98,-772.42 1325.09,-780.37"/>
<polygon fill="black" stroke="black" points="1324.16,-783.75 1334.74,-783.2 1326.13,-777.03 1324.16,-783.75"/>
</g>
<!-- concepts -->
<g id="node25" class="node">
<title>concepts</title>
<ellipse fill="none" stroke="black" cx="1372.56" cy="-740" rx="44.39" ry="18"/>
<text text-anchor="middle" x="1372.56" y="-736.3" font-family="Times New Roman,serif" font-size="14.00">concepts</text>
</g>
<!-- static programming&#45;&gt;concepts -->
<g id="edge28" class="edge">
<title>static programming&#45;&gt;concepts</title>
<path fill="none" stroke="black" d="M1267.11,-740C1284.33,-740 1302.15,-740 1318.07,-740"/>
<polygon fill="black" stroke="black" points="1318.25,-743.5 1328.25,-740 1318.25,-736.5 1318.25,-743.5"/>
</g>
<!-- data classes\nrecord classes -->
<g id="node27" class="node">
<title>data classes\nrecord classes</title>
<ellipse fill="none" stroke="black" cx="562.36" cy="-731" rx="68.68" ry="26.74"/>
<text text-anchor="middle" x="562.36" y="-734.8" font-family="Times New Roman,serif" font-size="14.00">data classes</text>
<text text-anchor="middle" x="562.36" y="-719.8" font-family="Times New Roman,serif" font-size="14.00">record classes</text>
</g>
<!-- equality&#45;&gt;data classes\nrecord classes -->
<g id="edge30" class="edge">
<title>equality&#45;&gt;data classes\nrecord classes</title>
<path fill="none" stroke="black" d="M407.03,-712.38C429.55,-715.1 459.3,-718.69 486.68,-721.99"/>
<polygon fill="black" stroke="black" points="486.29,-725.47 496.63,-723.19 487.13,-718.52 486.29,-725.47"/>
</g>
<!-- manual\niequatable -->
<g id="node28" class="node">
<title>manual\niequatable</title>
<ellipse fill="none" stroke="black" cx="562.36" cy="-803" rx="50.82" ry="26.74"/>
<text text-anchor="middle" x="562.36" y="-806.8" font-family="Times New Roman,serif" font-size="14.00">manual</text>
<text text-anchor="middle" x="562.36" y="-791.8" font-family="Times New Roman,serif" font-size="14.00">iequatable</text>
</g>
<!-- equality&#45;&gt;manual\niequatable -->
<g id="edge31" class="edge">
<title>equality&#45;&gt;manual\niequatable</title>
<path fill="none" stroke="black" d="M394.97,-721.96C416.74,-734.32 449.72,-752.57 479.17,-767 489.78,-772.19 501.31,-777.47 512.28,-782.32"/>
<polygon fill="black" stroke="black" points="511.19,-785.66 521.75,-786.46 513.99,-779.25 511.19,-785.66"/>
</g>
<!-- reference system -->
<g id="node29" class="node">
<title>reference system</title>
<ellipse fill="none" stroke="black" cx="562.36" cy="-668" rx="71.49" ry="18"/>
<text text-anchor="middle" x="562.36" y="-664.3" font-family="Times New Roman,serif" font-size="14.00">reference system</text>
</g>
<!-- equality&#45;&gt;reference system -->
<g id="edge32" class="edge">
<title>equality&#45;&gt;reference system</title>
<path fill="none" stroke="black" d="M405.25,-700.76C430.81,-695.39 466.38,-687.93 497.11,-681.48"/>
<polygon fill="black" stroke="black" points="497.84,-684.91 506.9,-679.43 496.4,-678.06 497.84,-684.91"/>
</g>
<!-- reference system&#45;&gt;set theory -->
<g id="edge33" class="edge">
<title>reference system&#45;&gt;set theory</title>
<path fill="none" stroke="black" d="M621.04,-657.67C653.22,-651.9 692.96,-644.78 724.07,-639.21"/>
<polygon fill="black" stroke="black" points="725.03,-642.59 734.26,-637.38 723.8,-635.7 725.03,-642.59"/>
</g>
<!-- functional&#45;&gt;lambda calculus -->
<g id="edge38" class="edge">
<title>functional&#45;&gt;lambda calculus</title>
<path fill="none" stroke="black" d="M822.03,-306.68C927.99,-299.58 1191.7,-286.79 1267.01,-329 1292.17,-343.1 1284.43,-360.94 1303.01,-383 1315.26,-397.54 1330.47,-412.24 1343.45,-423.98"/>
<polygon fill="black" stroke="black" points="1341.4,-426.84 1351.2,-430.87 1346.06,-421.61 1341.4,-426.84"/>
</g>
<!-- databases -->
<g id="node32" class="node">
<title>databases</title>
<ellipse fill="none" stroke="black" cx="1186.42" cy="-624" rx="46.29" ry="18"/>
<text text-anchor="middle" x="1186.42" y="-620.3" font-family="Times New Roman,serif" font-size="14.00">databases</text>
</g>
<!-- servers&#45;&gt;databases -->
<g id="edge40" class="edge">
<title>servers&#45;&gt;databases</title>
<path fill="none" stroke="black" d="M1025.05,-624C1054.32,-624 1096.36,-624 1130.06,-624"/>
<polygon fill="black" stroke="black" points="1130.22,-627.5 1140.22,-624 1130.22,-620.5 1130.22,-627.5"/>
</g>
<!-- networking -->
<g id="node33" class="node">
<title>networking</title>
<ellipse fill="none" stroke="black" cx="1186.42" cy="-678" rx="50.89" ry="18"/>
<text text-anchor="middle" x="1186.42" y="-674.3" font-family="Times New Roman,serif" font-size="14.00">networking</text>
</g>
<!-- servers&#45;&gt;networking -->
<g id="edge42" class="edge">
<title>servers&#45;&gt;networking</title>
<path fill="none" stroke="black" d="M1020.61,-632.56C1051.57,-641.09 1099.61,-654.34 1135.85,-664.33"/>
<polygon fill="black" stroke="black" points="1135.16,-667.77 1145.73,-667.06 1137.03,-661.03 1135.16,-667.77"/>
</g>
<!-- databases&#45;&gt;complexity -->
<g id="edge41" class="edge">
<title>databases&#45;&gt;complexity</title>
<path fill="none" stroke="black" d="M1225.57,-614.47C1253.11,-607.59 1290.59,-598.23 1320.68,-590.71"/>
<polygon fill="black" stroke="black" points="1321.72,-594.06 1330.57,-588.24 1320.02,-587.27 1321.72,-594.06"/>
</g>
<!-- http protocol -->
<g id="node34" class="node">
<title>http protocol</title>
<ellipse fill="none" stroke="black" cx="1372.56" cy="-632" rx="58.49" ry="18"/>
<text text-anchor="middle" x="1372.56" y="-628.3" font-family="Times New Roman,serif" font-size="14.00">http protocol</text>
</g>
<!-- networking&#45;&gt;http protocol -->
<g id="edge43" class="edge">
<title>networking&#45;&gt;http protocol</title>
<path fill="none" stroke="black" d="M1228.28,-667.79C1254.35,-661.28 1288.44,-652.76 1316.83,-645.67"/>
<polygon fill="black" stroke="black" points="1317.76,-649.05 1326.61,-643.23 1316.06,-642.26 1317.76,-649.05"/>
</g>
<!-- mathematics&#45;&gt;number systems -->
<g id="edge51" class="edge">
<title>mathematics&#45;&gt;number systems</title>
<path fill="none" stroke="black" d="M420.38,-304.8C481.61,-314.09 588.97,-329.31 681.56,-337 831.53,-349.45 1007.31,-353.75 1106.59,-355.23"/>
<polygon fill="black" stroke="black" points="1106.79,-358.73 1116.84,-355.37 1106.89,-351.73 1106.79,-358.73"/>
</g>
<!-- mathematics&#45;&gt;set theory -->
<g id="edge58" class="edge">
<title>mathematics&#45;&gt;set theory</title>
<path fill="none" stroke="black" d="M379.53,-314.97C399.72,-355.48 449.85,-452 479.17,-473 540.84,-517.17 588.09,-461.49 645.56,-511 678.82,-539.66 649.1,-573.43 681.56,-603 692.56,-613.02 707.05,-619.35 721.35,-623.33"/>
<polygon fill="black" stroke="black" points="720.62,-626.76 731.17,-625.73 722.28,-619.96 720.62,-626.76"/>
</g>
<!-- mathematics&#45;&gt;commutativity -->
<g id="edge56" class="edge">
<title>mathematics&#45;&gt;commutativity</title>
<path fill="none" stroke="black" d="M392.23,-313.8C426.26,-340.41 492.67,-392.31 531.37,-422.56"/>
<polygon fill="black" stroke="black" points="529.62,-425.63 539.65,-429.03 533.93,-420.11 529.62,-425.63"/>
</g>
<!-- analysis -->
<g id="node36" class="node">
<title>analysis</title>
<ellipse fill="none" stroke="black" cx="562.36" cy="-201" rx="38.99" ry="18"/>
<text text-anchor="middle" x="562.36" y="-197.3" font-family="Times New Roman,serif" font-size="14.00">analysis</text>
</g>
<!-- mathematics&#45;&gt;analysis -->
<g id="edge45" class="edge">
<title>mathematics&#45;&gt;analysis</title>
<path fill="none" stroke="black" d="M400.94,-281.79C434.96,-264.66 490.17,-236.85 526.13,-218.74"/>
<polygon fill="black" stroke="black" points="527.92,-221.76 535.28,-214.13 524.78,-215.51 527.92,-221.76"/>
</g>
<!-- logic -->
<g id="node42" class="node">
<title>logic</title>
<ellipse fill="none" stroke="black" cx="562.36" cy="-278" rx="28.7" ry="18"/>
<text text-anchor="middle" x="562.36" y="-274.3" font-family="Times New Roman,serif" font-size="14.00">logic</text>
</g>
<!-- mathematics&#45;&gt;logic -->
<g id="edge52" class="edge">
<title>mathematics&#45;&gt;logic</title>
<path fill="none" stroke="black" d="M423.33,-291.76C455.23,-288.58 495.18,-284.6 523.88,-281.74"/>
<polygon fill="black" stroke="black" points="524.3,-285.21 533.91,-280.74 523.61,-278.25 524.3,-285.21"/>
</g>
<!-- basic functions -->
<g id="node43" class="node">
<title>basic functions</title>
<ellipse fill="none" stroke="black" cx="562.36" cy="-18" rx="65.79" ry="18"/>
<text text-anchor="middle" x="562.36" y="-14.3" font-family="Times New Roman,serif" font-size="14.00">basic functions</text>
</g>
<!-- mathematics&#45;&gt;basic functions -->
<g id="edge55" class="edge">
<title>mathematics&#45;&gt;basic functions</title>
<path fill="none" stroke="black" d="M380.95,-279.01C395.81,-252.43 423.73,-200.86 443.17,-155 462.43,-109.58 445.01,-85.59 479.17,-50 485.64,-43.27 493.68,-37.93 502.19,-33.69"/>
<polygon fill="black" stroke="black" points="503.84,-36.79 511.55,-29.53 500.99,-30.4 503.84,-36.79"/>
</g>
<!-- combinatorics -->
<g id="node46" class="node">
<title>combinatorics</title>
<ellipse fill="none" stroke="black" cx="1186.42" cy="-164" rx="62.29" ry="18"/>
<text text-anchor="middle" x="1186.42" y="-160.3" font-family="Times New Roman,serif" font-size="14.00">combinatorics</text>
</g>
<!-- mathematics&#45;&gt;combinatorics -->
<g id="edge60" class="edge">
<title>mathematics&#45;&gt;combinatorics</title>
<path fill="none" stroke="black" d="M382.52,-279.39C400.66,-253.41 437.7,-204.58 479.17,-174 558.55,-115.47 585.13,-103.68 681.56,-83 849.6,-46.96 1052.27,-112.04 1140.62,-145.69"/>
<polygon fill="black" stroke="black" points="1139.47,-149 1150.06,-149.34 1141.99,-142.47 1139.47,-149"/>
</g>
<!-- definition of continuity -->
<g id="node37" class="node">
<title>definition of continuity</title>
<ellipse fill="none" stroke="black" cx="776.45" cy="-218" rx="92.88" ry="18"/>
<text text-anchor="middle" x="776.45" y="-214.3" font-family="Times New Roman,serif" font-size="14.00">definition of continuity</text>
</g>
<!-- analysis&#45;&gt;definition of continuity -->
<g id="edge46" class="edge">
<title>analysis&#45;&gt;definition of continuity</title>
<path fill="none" stroke="black" d="M601.28,-204.04C623.35,-205.81 652.25,-208.13 680.15,-210.36"/>
<polygon fill="black" stroke="black" points="680.12,-213.87 690.37,-211.18 680.68,-206.89 680.12,-213.87"/>
</g>
<!-- definition of limit -->
<g id="node39" class="node">
<title>definition of limit</title>
<ellipse fill="none" stroke="black" cx="776.45" cy="-164" rx="72.29" ry="18"/>
<text text-anchor="middle" x="776.45" y="-160.3" font-family="Times New Roman,serif" font-size="14.00">definition of limit</text>
</g>
<!-- analysis&#45;&gt;definition of limit -->
<g id="edge48" class="edge">
<title>analysis&#45;&gt;definition of limit</title>
<path fill="none" stroke="black" d="M599.34,-194.72C628.72,-189.6 671.1,-182.21 706.92,-175.96"/>
<polygon fill="black" stroke="black" points="707.58,-179.39 716.83,-174.23 706.38,-172.5 707.58,-179.39"/>
</g>
<!-- definition of supremum -->
<g id="node40" class="node">
<title>definition of supremum</title>
<ellipse fill="none" stroke="black" cx="776.45" cy="-110" rx="94.78" ry="18"/>
<text text-anchor="middle" x="776.45" y="-106.3" font-family="Times New Roman,serif" font-size="14.00">definition of supremum</text>
</g>
<!-- analysis&#45;&gt;definition of supremum -->
<g id="edge49" class="edge">
<title>analysis&#45;&gt;definition of supremum</title>
<path fill="none" stroke="black" d="M586.18,-186.71C609.47,-172.6 647,-151.13 681.56,-137 690.09,-133.51 699.23,-130.29 708.34,-127.37"/>
<polygon fill="black" stroke="black" points="709.65,-130.63 718.17,-124.33 707.59,-123.94 709.65,-130.63"/>
</g>
<!-- quantifiers -->
<g id="node38" class="node">
<title>quantifiers</title>
<ellipse fill="none" stroke="black" cx="988.58" cy="-210" rx="48.19" ry="18"/>
<text text-anchor="middle" x="988.58" y="-206.3" font-family="Times New Roman,serif" font-size="14.00">quantifiers</text>
</g>
<!-- definition of continuity&#45;&gt;quantifiers -->
<g id="edge47" class="edge">
<title>definition of continuity&#45;&gt;quantifiers</title>
<path fill="none" stroke="black" d="M867.78,-214.56C889,-213.75 911.03,-212.91 930.33,-212.18"/>
<polygon fill="black" stroke="black" points="930.59,-215.67 940.45,-211.79 930.32,-208.68 930.59,-215.67"/>
</g>
<!-- negation -->
<g id="node41" class="node">
<title>negation</title>
<ellipse fill="none" stroke="black" cx="988.58" cy="-264" rx="40.89" ry="18"/>
<text text-anchor="middle" x="988.58" y="-260.3" font-family="Times New Roman,serif" font-size="14.00">negation</text>
</g>
<!-- definition of supremum&#45;&gt;negation -->
<g id="edge50" class="edge">
<title>definition of supremum&#45;&gt;negation</title>
<path fill="none" stroke="black" d="M847.61,-122C856.31,-125.74 864.53,-130.62 871.34,-137 905.82,-169.29 873.59,-203.95 907.34,-237 916.2,-245.68 927.94,-251.57 939.69,-255.57"/>
<polygon fill="black" stroke="black" points="938.92,-258.99 949.51,-258.5 940.93,-252.28 938.92,-258.99"/>
</g>
<!-- logic&#45;&gt;functional -->
<g id="edge54" class="edge">
<title>logic&#45;&gt;functional</title>
<path fill="none" stroke="black" d="M590.66,-282.12C624.04,-287.15 681.28,-295.79 723.23,-302.12"/>
<polygon fill="black" stroke="black" points="722.86,-305.6 733.27,-303.64 723.9,-298.68 722.86,-305.6"/>
</g>
<!-- logic&#45;&gt;negation -->
<g id="edge53" class="edge">
<title>logic&#45;&gt;negation</title>
<path fill="none" stroke="black" d="M591.2,-277.08C661.59,-274.76 847.49,-268.62 937.43,-265.66"/>
<polygon fill="black" stroke="black" points="937.77,-269.15 947.65,-265.32 937.54,-262.15 937.77,-269.15"/>
</g>
<!-- irregular collections&#45;&gt;combinatorics -->
<g id="edge62" class="edge">
<title>irregular collections&#45;&gt;combinatorics</title>
<path fill="none" stroke="black" d="M1018.8,-515.02C1036.07,-503.55 1057,-486.89 1069.83,-467 1104.17,-413.72 1083.95,-388.49 1105.83,-329 1124.33,-278.68 1152.97,-223.09 1170.38,-190.99"/>
<polygon fill="black" stroke="black" points="1173.67,-192.26 1175.4,-181.81 1167.53,-188.9 1173.67,-192.26"/>
</g>
<!-- problem solving -->
<g id="node47" class="node">
<title>problem solving</title>
<ellipse fill="none" stroke="black" cx="1372.56" cy="-164" rx="69.59" ry="18"/>
<text text-anchor="middle" x="1372.56" y="-160.3" font-family="Times New Roman,serif" font-size="14.00">problem solving</text>
</g>
<!-- combinatorics&#45;&gt;problem solving -->
<g id="edge61" class="edge">
<title>combinatorics&#45;&gt;problem solving</title>
<path fill="none" stroke="black" d="M1248.99,-164C1263.01,-164 1278.09,-164 1292.71,-164"/>
<polygon fill="black" stroke="black" points="1292.74,-167.5 1302.74,-164 1292.74,-160.5 1292.74,-167.5"/>
</g>
<!-- waves -->
<g id="node49" class="node">
<title>waves</title>
<ellipse fill="none" stroke="black" cx="369.73" cy="-128" rx="33.29" ry="18"/>
<text text-anchor="middle" x="369.73" y="-124.3" font-family="Times New Roman,serif" font-size="14.00">waves</text>
</g>
<!-- electrical engineering&#45;&gt;waves -->
<g id="edge64" class="edge">
<title>electrical engineering&#45;&gt;waves</title>
<path fill="none" stroke="black" d="M200.53,-248.52C236.23,-222.94 302.57,-175.41 340.39,-148.31"/>
<polygon fill="black" stroke="black" points="342.81,-150.88 348.9,-142.21 338.74,-145.19 342.81,-150.88"/>
</g>
<!-- waves&#45;&gt;basic functions -->
<g id="edge65" class="edge">
<title>waves&#45;&gt;basic functions</title>
<path fill="none" stroke="black" d="M388.59,-112.97C409.36,-96.04 445.14,-68.48 479.17,-50 488.96,-44.69 499.82,-39.81 510.36,-35.55"/>
<polygon fill="black" stroke="black" points="511.86,-38.72 519.9,-31.81 509.31,-32.2 511.86,-38.72"/>
</g>
</g>
</svg>
